<svg xmlns="http://www.w3.org/2000/svg" viewBox="0 0 960 960" width="960" height="960">
<style>
  path, rect, line { fill: none; stroke: #000; stroke-linecap: round; stroke-linejoin: round; }
  .o { stroke-width: 40; }
  .d { stroke-width: 20; }
  .s { stroke-width: 10; }
</style>
<g transform="translate(-50 0)">
<path class="o" d="M 330 80 L 800 80 A 70 70 0 0 1 870 150 L 870 800 A 70 70 0 0 1 800 870 L 330 870 C 250 870, 190 840, 190 760 L 190 220 C 190 140, 250 80, 330 80 Z"/>
<path class="d" d="M 322 86 C 285 98, 264 128, 264 170 L 264 780 C 264 822, 285 852, 322 864"/>
<rect x="320" y="145" width="490" height="220" rx="30" class="d"/>
<path class="d" d="M 578 175 L 503 267 L 556 267 L 522 335 L 627 235 L 569 235 Z"/>
<line x1="272" y1="415" x2="858" y2="415" class="d"/>
<path class="s" d="M 295 484 L 295 526"/>
<path class="s" d="M 480 484 L 480 526"/>
<path class="s" d="M 665 484 L 665 526"/>
<path class="s" d="M 295 616 L 295 658"/>
<path class="s" d="M 480 616 L 480 658"/>
<path class="s" d="M 665 616 L 665 658"/>
<path class="s" d="M 295 748 L 295 790"/>
<path class="s" d="M 480 748 L 480 790"/>
<rect x="315" y="460" width="130" height="90" rx="24" class="d"/>
<rect x="500" y="460" width="130" height="90" rx="24" class="d"/>
<rect x="685" y="460" width="130" height="90" rx="24" class="d"/>
<rect x="315" y="592" width="130" height="90" rx="24" class="d"/>
<rect x="500" y="592" width="130" height="90" rx="24" class="d"/>
<rect x="685" y="592" width="130" height="90" rx="24" class="d"/>
<rect x="315" y="724" width="130" height="90" rx="24" class="d"/>
<rect x="500" y="724" width="315" height="90" rx="24" class="d"/>
</g>
</svg>
